<mxfile host="app.diagrams.net" agent="Mozilla/5.0 (X11; Linux x86_64) AppleWebKit/537.36 (KHTML, like Gecko) Chrome/141.0.0.0 Safari/537.36" version="28.2.5">
  <diagram name="Página-1" id="jaa9c4h55vfdz4ke0TSy">
    <mxGraphModel dx="1426" dy="679" grid="1" gridSize="10" guides="1" tooltips="1" connect="1" arrows="1" fold="1" page="1" pageScale="1" pageWidth="827" pageHeight="1169" math="0" shadow="0">
      <root>
        <mxCell id="0" />
        <mxCell id="1" parent="0" />
        <mxCell id="Y2BL3SGhN4bYFbk2j--X-1" value="VISTA" style="rounded=0;whiteSpace=wrap;html=1;" vertex="1" parent="1">
          <mxGeometry x="120" y="20" width="120" height="60" as="geometry" />
        </mxCell>
        <mxCell id="Y2BL3SGhN4bYFbk2j--X-2" value="CONTROLADOR" style="rounded=0;whiteSpace=wrap;html=1;" vertex="1" parent="1">
          <mxGeometry x="320" y="20" width="120" height="60" as="geometry" />
        </mxCell>
        <mxCell id="Y2BL3SGhN4bYFbk2j--X-3" value="MODELO" style="rounded=0;whiteSpace=wrap;html=1;" vertex="1" parent="1">
          <mxGeometry x="520" y="20" width="120" height="60" as="geometry" />
        </mxCell>
        <mxCell id="Y2BL3SGhN4bYFbk2j--X-4" style="edgeStyle=orthogonalEdgeStyle;rounded=0;orthogonalLoop=1;jettySize=auto;html=1;exitX=0.5;exitY=1;exitDx=0;exitDy=0;entryX=0.5;entryY=0;entryDx=0;entryDy=0;" edge="1" parent="1" source="Y2BL3SGhN4bYFbk2j--X-5" target="Y2BL3SGhN4bYFbk2j--X-7">
          <mxGeometry relative="1" as="geometry" />
        </mxCell>
        <mxCell id="Y2BL3SGhN4bYFbk2j--X-5" value="mostrar formulario" style="rounded=1;whiteSpace=wrap;html=1;" vertex="1" parent="1">
          <mxGeometry x="120" y="680" width="120" height="40" as="geometry" />
        </mxCell>
        <mxCell id="Y2BL3SGhN4bYFbk2j--X-6" style="edgeStyle=orthogonalEdgeStyle;rounded=0;orthogonalLoop=1;jettySize=auto;html=1;exitX=0.5;exitY=1;exitDx=0;exitDy=0;entryX=0.5;entryY=0;entryDx=0;entryDy=0;" edge="1" parent="1" source="Y2BL3SGhN4bYFbk2j--X-7" target="Y2BL3SGhN4bYFbk2j--X-9">
          <mxGeometry relative="1" as="geometry" />
        </mxCell>
        <mxCell id="Y2BL3SGhN4bYFbk2j--X-7" value="completar formulario" style="rounded=1;whiteSpace=wrap;html=1;" vertex="1" parent="1">
          <mxGeometry x="120" y="760" width="120" height="40" as="geometry" />
        </mxCell>
        <mxCell id="Y2BL3SGhN4bYFbk2j--X-8" style="edgeStyle=orthogonalEdgeStyle;rounded=0;orthogonalLoop=1;jettySize=auto;html=1;exitX=1;exitY=0.5;exitDx=0;exitDy=0;entryX=0;entryY=0.5;entryDx=0;entryDy=0;" edge="1" parent="1" source="Y2BL3SGhN4bYFbk2j--X-9" target="Y2BL3SGhN4bYFbk2j--X-11">
          <mxGeometry relative="1" as="geometry" />
        </mxCell>
        <mxCell id="Y2BL3SGhN4bYFbk2j--X-9" value="confirmar formulario" style="rounded=1;whiteSpace=wrap;html=1;" vertex="1" parent="1">
          <mxGeometry x="120" y="840" width="120" height="40" as="geometry" />
        </mxCell>
        <mxCell id="Y2BL3SGhN4bYFbk2j--X-10" style="edgeStyle=orthogonalEdgeStyle;rounded=0;orthogonalLoop=1;jettySize=auto;html=1;exitX=0.5;exitY=1;exitDx=0;exitDy=0;entryX=0.5;entryY=0;entryDx=0;entryDy=0;" edge="1" parent="1" source="Y2BL3SGhN4bYFbk2j--X-11" target="Y2BL3SGhN4bYFbk2j--X-21">
          <mxGeometry relative="1" as="geometry" />
        </mxCell>
        <mxCell id="Y2BL3SGhN4bYFbk2j--X-11" value="validar datos" style="rounded=1;whiteSpace=wrap;html=1;" vertex="1" parent="1">
          <mxGeometry x="320" y="840" width="120" height="40" as="geometry" />
        </mxCell>
        <mxCell id="Y2BL3SGhN4bYFbk2j--X-12" style="edgeStyle=orthogonalEdgeStyle;rounded=0;orthogonalLoop=1;jettySize=auto;html=1;exitX=0;exitY=0.5;exitDx=0;exitDy=0;entryX=0;entryY=0.5;entryDx=0;entryDy=0;" edge="1" parent="1" source="Y2BL3SGhN4bYFbk2j--X-13" target="Y2BL3SGhN4bYFbk2j--X-5">
          <mxGeometry relative="1" as="geometry" />
        </mxCell>
        <mxCell id="Y2BL3SGhN4bYFbk2j--X-13" value="informar error" style="rounded=1;whiteSpace=wrap;html=1;" vertex="1" parent="1">
          <mxGeometry x="120" y="920" width="120" height="40" as="geometry" />
        </mxCell>
        <mxCell id="Y2BL3SGhN4bYFbk2j--X-14" style="edgeStyle=orthogonalEdgeStyle;rounded=0;orthogonalLoop=1;jettySize=auto;html=1;exitX=0.5;exitY=1;exitDx=0;exitDy=0;entryX=0.5;entryY=0;entryDx=0;entryDy=0;" edge="1" parent="1" source="Y2BL3SGhN4bYFbk2j--X-15" target="Y2BL3SGhN4bYFbk2j--X-17">
          <mxGeometry relative="1" as="geometry" />
        </mxCell>
        <mxCell id="Y2BL3SGhN4bYFbk2j--X-15" value="crear préstamo" style="rounded=1;whiteSpace=wrap;html=1;" vertex="1" parent="1">
          <mxGeometry x="320" y="1000" width="120" height="40" as="geometry" />
        </mxCell>
        <mxCell id="Y2BL3SGhN4bYFbk2j--X-16" style="edgeStyle=orthogonalEdgeStyle;rounded=0;orthogonalLoop=1;jettySize=auto;html=1;exitX=1;exitY=0.5;exitDx=0;exitDy=0;" edge="1" parent="1" source="Y2BL3SGhN4bYFbk2j--X-17" target="Y2BL3SGhN4bYFbk2j--X-23">
          <mxGeometry relative="1" as="geometry" />
        </mxCell>
        <mxCell id="Y2BL3SGhN4bYFbk2j--X-17" value="añadir préstamo" style="rounded=1;whiteSpace=wrap;html=1;" vertex="1" parent="1">
          <mxGeometry x="320" y="1080" width="120" height="40" as="geometry" />
        </mxCell>
        <mxCell id="Y2BL3SGhN4bYFbk2j--X-18" value="" style="ellipse;whiteSpace=wrap;html=1;aspect=fixed;fillStyle=solid;fillColor=light-dark(#FFFFFF,#121212);" vertex="1" parent="1">
          <mxGeometry x="170" y="1170" width="20" height="20" as="geometry" />
        </mxCell>
        <mxCell id="Y2BL3SGhN4bYFbk2j--X-19" style="edgeStyle=orthogonalEdgeStyle;rounded=0;orthogonalLoop=1;jettySize=auto;html=1;exitX=0.5;exitY=1;exitDx=0;exitDy=0;entryX=0.5;entryY=0;entryDx=0;entryDy=0;" edge="1" parent="1" source="Y2BL3SGhN4bYFbk2j--X-21" target="Y2BL3SGhN4bYFbk2j--X-15">
          <mxGeometry relative="1" as="geometry" />
        </mxCell>
        <mxCell id="Y2BL3SGhN4bYFbk2j--X-20" style="edgeStyle=orthogonalEdgeStyle;rounded=0;orthogonalLoop=1;jettySize=auto;html=1;exitX=0;exitY=0.5;exitDx=0;exitDy=0;" edge="1" parent="1" source="Y2BL3SGhN4bYFbk2j--X-21" target="Y2BL3SGhN4bYFbk2j--X-13">
          <mxGeometry relative="1" as="geometry" />
        </mxCell>
        <mxCell id="Y2BL3SGhN4bYFbk2j--X-21" value="" style="rhombus;whiteSpace=wrap;html=1;" vertex="1" parent="1">
          <mxGeometry x="360" y="920" width="40" height="40" as="geometry" />
        </mxCell>
        <mxCell id="Y2BL3SGhN4bYFbk2j--X-22" style="edgeStyle=orthogonalEdgeStyle;rounded=0;orthogonalLoop=1;jettySize=auto;html=1;exitX=0.5;exitY=1;exitDx=0;exitDy=0;entryX=1;entryY=0.5;entryDx=0;entryDy=0;" edge="1" parent="1" source="Y2BL3SGhN4bYFbk2j--X-23" target="Y2BL3SGhN4bYFbk2j--X-18">
          <mxGeometry relative="1" as="geometry" />
        </mxCell>
        <mxCell id="Y2BL3SGhN4bYFbk2j--X-23" value="modificar tabla préstamo" style="rounded=1;whiteSpace=wrap;html=1;" vertex="1" parent="1">
          <mxGeometry x="520" y="1080" width="120" height="40" as="geometry" />
        </mxCell>
        <mxCell id="Y2BL3SGhN4bYFbk2j--X-32" style="edgeStyle=orthogonalEdgeStyle;rounded=0;orthogonalLoop=1;jettySize=auto;html=1;exitX=1;exitY=0.5;exitDx=0;exitDy=0;entryX=0;entryY=0.5;entryDx=0;entryDy=0;" edge="1" parent="1" source="Y2BL3SGhN4bYFbk2j--X-25" target="Y2BL3SGhN4bYFbk2j--X-28">
          <mxGeometry relative="1" as="geometry" />
        </mxCell>
        <mxCell id="Y2BL3SGhN4bYFbk2j--X-25" value="alta préstamo" style="rounded=1;whiteSpace=wrap;html=1;" vertex="1" parent="1">
          <mxGeometry x="120" y="200" width="120" height="40" as="geometry" />
        </mxCell>
        <mxCell id="Y2BL3SGhN4bYFbk2j--X-26" style="edgeStyle=orthogonalEdgeStyle;rounded=0;orthogonalLoop=1;jettySize=auto;html=1;exitX=0.5;exitY=1;exitDx=0;exitDy=0;entryX=0.5;entryY=0;entryDx=0;entryDy=0;" edge="1" parent="1" source="Y2BL3SGhN4bYFbk2j--X-27" target="Y2BL3SGhN4bYFbk2j--X-25">
          <mxGeometry relative="1" as="geometry" />
        </mxCell>
        <mxCell id="Y2BL3SGhN4bYFbk2j--X-27" value="vista préstamos" style="rounded=1;whiteSpace=wrap;html=1;" vertex="1" parent="1">
          <mxGeometry x="120" y="120" width="120" height="40" as="geometry" />
        </mxCell>
        <mxCell id="Y2BL3SGhN4bYFbk2j--X-33" style="edgeStyle=orthogonalEdgeStyle;rounded=0;orthogonalLoop=1;jettySize=auto;html=1;exitX=1;exitY=0.5;exitDx=0;exitDy=0;entryX=0;entryY=0.5;entryDx=0;entryDy=0;" edge="1" parent="1" source="Y2BL3SGhN4bYFbk2j--X-28" target="Y2BL3SGhN4bYFbk2j--X-29">
          <mxGeometry relative="1" as="geometry" />
        </mxCell>
        <mxCell id="Y2BL3SGhN4bYFbk2j--X-28" value="recuperar lista prestatarios" style="rounded=1;whiteSpace=wrap;html=1;" vertex="1" parent="1">
          <mxGeometry x="320" y="200" width="120" height="40" as="geometry" />
        </mxCell>
        <mxCell id="Y2BL3SGhN4bYFbk2j--X-55" style="edgeStyle=orthogonalEdgeStyle;rounded=0;orthogonalLoop=1;jettySize=auto;html=1;exitX=0.5;exitY=1;exitDx=0;exitDy=0;entryX=0.5;entryY=0;entryDx=0;entryDy=0;" edge="1" parent="1" source="Y2BL3SGhN4bYFbk2j--X-29" target="Y2BL3SGhN4bYFbk2j--X-36">
          <mxGeometry relative="1" as="geometry" />
        </mxCell>
        <mxCell id="Y2BL3SGhN4bYFbk2j--X-29" value="recuperar prestatarios" style="rounded=1;whiteSpace=wrap;html=1;" vertex="1" parent="1">
          <mxGeometry x="520" y="200" width="120" height="40" as="geometry" />
        </mxCell>
        <mxCell id="Y2BL3SGhN4bYFbk2j--X-35" style="edgeStyle=orthogonalEdgeStyle;rounded=0;orthogonalLoop=1;jettySize=auto;html=1;exitX=1;exitY=0.5;exitDx=0;exitDy=0;entryX=0;entryY=0.5;entryDx=0;entryDy=0;" edge="1" parent="1" source="Y2BL3SGhN4bYFbk2j--X-30" target="Y2BL3SGhN4bYFbk2j--X-31">
          <mxGeometry relative="1" as="geometry" />
        </mxCell>
        <mxCell id="Y2BL3SGhN4bYFbk2j--X-30" value="recuperar lista garantes" style="rounded=1;whiteSpace=wrap;html=1;" vertex="1" parent="1">
          <mxGeometry x="320" y="440" width="120" height="40" as="geometry" />
        </mxCell>
        <mxCell id="Y2BL3SGhN4bYFbk2j--X-57" style="edgeStyle=orthogonalEdgeStyle;rounded=0;orthogonalLoop=1;jettySize=auto;html=1;exitX=0.5;exitY=1;exitDx=0;exitDy=0;entryX=0.5;entryY=0;entryDx=0;entryDy=0;" edge="1" parent="1" source="Y2BL3SGhN4bYFbk2j--X-31" target="Y2BL3SGhN4bYFbk2j--X-39">
          <mxGeometry relative="1" as="geometry" />
        </mxCell>
        <mxCell id="Y2BL3SGhN4bYFbk2j--X-31" value="recuperar garantes" style="rounded=1;whiteSpace=wrap;html=1;" vertex="1" parent="1">
          <mxGeometry x="520" y="440" width="120" height="40" as="geometry" />
        </mxCell>
        <mxCell id="Y2BL3SGhN4bYFbk2j--X-42" style="edgeStyle=orthogonalEdgeStyle;rounded=0;orthogonalLoop=1;jettySize=auto;html=1;exitX=0.5;exitY=1;exitDx=0;exitDy=0;entryX=0.5;entryY=0;entryDx=0;entryDy=0;" edge="1" parent="1" source="Y2BL3SGhN4bYFbk2j--X-36" target="Y2BL3SGhN4bYFbk2j--X-38">
          <mxGeometry relative="1" as="geometry" />
        </mxCell>
        <mxCell id="Y2BL3SGhN4bYFbk2j--X-36" value="comprobar lista prestatarios" style="rounded=1;whiteSpace=wrap;html=1;" vertex="1" parent="1">
          <mxGeometry x="320" y="280" width="120" height="40" as="geometry" />
        </mxCell>
        <mxCell id="Y2BL3SGhN4bYFbk2j--X-43" style="edgeStyle=orthogonalEdgeStyle;rounded=0;orthogonalLoop=1;jettySize=auto;html=1;exitX=0;exitY=0.5;exitDx=0;exitDy=0;entryX=1;entryY=0.5;entryDx=0;entryDy=0;" edge="1" parent="1" source="Y2BL3SGhN4bYFbk2j--X-38" target="Y2BL3SGhN4bYFbk2j--X-40">
          <mxGeometry relative="1" as="geometry" />
        </mxCell>
        <mxCell id="Y2BL3SGhN4bYFbk2j--X-56" style="edgeStyle=orthogonalEdgeStyle;rounded=0;orthogonalLoop=1;jettySize=auto;html=1;exitX=0.5;exitY=1;exitDx=0;exitDy=0;entryX=0.5;entryY=0;entryDx=0;entryDy=0;" edge="1" parent="1" source="Y2BL3SGhN4bYFbk2j--X-38" target="Y2BL3SGhN4bYFbk2j--X-30">
          <mxGeometry relative="1" as="geometry" />
        </mxCell>
        <mxCell id="Y2BL3SGhN4bYFbk2j--X-38" value="" style="rhombus;whiteSpace=wrap;html=1;" vertex="1" parent="1">
          <mxGeometry x="360" y="360" width="40" height="40" as="geometry" />
        </mxCell>
        <mxCell id="Y2BL3SGhN4bYFbk2j--X-45" style="edgeStyle=orthogonalEdgeStyle;rounded=0;orthogonalLoop=1;jettySize=auto;html=1;exitX=0.5;exitY=1;exitDx=0;exitDy=0;entryX=0.5;entryY=0;entryDx=0;entryDy=0;" edge="1" parent="1" source="Y2BL3SGhN4bYFbk2j--X-39" target="Y2BL3SGhN4bYFbk2j--X-44">
          <mxGeometry relative="1" as="geometry" />
        </mxCell>
        <mxCell id="Y2BL3SGhN4bYFbk2j--X-39" value="comprobar lista garantes" style="rounded=1;whiteSpace=wrap;html=1;" vertex="1" parent="1">
          <mxGeometry x="320" y="520" width="120" height="40" as="geometry" />
        </mxCell>
        <mxCell id="Y2BL3SGhN4bYFbk2j--X-51" style="edgeStyle=orthogonalEdgeStyle;rounded=0;orthogonalLoop=1;jettySize=auto;html=1;exitX=0;exitY=0.5;exitDx=0;exitDy=0;entryX=0.5;entryY=1;entryDx=0;entryDy=0;" edge="1" parent="1" source="Y2BL3SGhN4bYFbk2j--X-40" target="Y2BL3SGhN4bYFbk2j--X-18">
          <mxGeometry relative="1" as="geometry">
            <Array as="points">
              <mxPoint x="60" y="380" />
              <mxPoint x="60" y="1210" />
              <mxPoint x="180" y="1210" />
            </Array>
          </mxGeometry>
        </mxCell>
        <mxCell id="Y2BL3SGhN4bYFbk2j--X-40" value="informar lista vacia" style="rounded=1;whiteSpace=wrap;html=1;" vertex="1" parent="1">
          <mxGeometry x="120" y="360" width="120" height="40" as="geometry" />
        </mxCell>
        <mxCell id="Y2BL3SGhN4bYFbk2j--X-52" style="edgeStyle=orthogonalEdgeStyle;rounded=0;orthogonalLoop=1;jettySize=auto;html=1;exitX=0;exitY=0.5;exitDx=0;exitDy=0;entryX=0;entryY=0.5;entryDx=0;entryDy=0;" edge="1" parent="1" source="Y2BL3SGhN4bYFbk2j--X-41" target="Y2BL3SGhN4bYFbk2j--X-18">
          <mxGeometry relative="1" as="geometry">
            <Array as="points">
              <mxPoint x="80" y="620" />
              <mxPoint x="80" y="1180" />
            </Array>
          </mxGeometry>
        </mxCell>
        <mxCell id="Y2BL3SGhN4bYFbk2j--X-41" value="informar lista vacia" style="rounded=1;whiteSpace=wrap;html=1;" vertex="1" parent="1">
          <mxGeometry x="120" y="600" width="120" height="40" as="geometry" />
        </mxCell>
        <mxCell id="Y2BL3SGhN4bYFbk2j--X-47" style="edgeStyle=orthogonalEdgeStyle;rounded=0;orthogonalLoop=1;jettySize=auto;html=1;exitX=0;exitY=0.5;exitDx=0;exitDy=0;entryX=1;entryY=0.5;entryDx=0;entryDy=0;" edge="1" parent="1" source="Y2BL3SGhN4bYFbk2j--X-44" target="Y2BL3SGhN4bYFbk2j--X-41">
          <mxGeometry relative="1" as="geometry" />
        </mxCell>
        <mxCell id="Y2BL3SGhN4bYFbk2j--X-53" style="edgeStyle=orthogonalEdgeStyle;rounded=0;orthogonalLoop=1;jettySize=auto;html=1;exitX=0.5;exitY=1;exitDx=0;exitDy=0;entryX=1;entryY=0.5;entryDx=0;entryDy=0;" edge="1" parent="1" source="Y2BL3SGhN4bYFbk2j--X-44" target="Y2BL3SGhN4bYFbk2j--X-5">
          <mxGeometry relative="1" as="geometry" />
        </mxCell>
        <mxCell id="Y2BL3SGhN4bYFbk2j--X-44" value="" style="rhombus;whiteSpace=wrap;html=1;" vertex="1" parent="1">
          <mxGeometry x="360" y="600" width="40" height="40" as="geometry" />
        </mxCell>
      </root>
    </mxGraphModel>
  </diagram>
</mxfile>
